<svg xmlns="http://www.w3.org/2000/svg" viewBox="0 0 175.216 175.552">
  <defs>
    <linearGradient id="a" x1="85.915" x2="86.535" y1="32.567" y2="137.092" gradientUnits="userSpaceOnUse">
      <stop offset="0" stop-color="#57d163"/>
      <stop offset="1" stop-color="#23b33a"/>
    </linearGradient>
  </defs>
  <path d="M87.184 14.2A73.073 73.073 0 0 0 14.2 87.184a72.6 72.6 0 0 0 10.1 37.17L14.2 161.352l38.3-10.04a72.9 72.9 0 0 0 34.7 8.82 73.073 73.073 0 0 0 0-146.145zm0 133.77a60.62 60.62 0 0 1-30.88-8.44l-2.21-1.31-22.94 6.02 6.12-22.37-1.44-2.29a60.22 60.22 0 0 1-9.24-32.16 60.7 60.7 0 1 1 60.59 60.55z" fill="#e0e0e0"/>
  <path d="M87.184 25.227A61.96 61.96 0 0 0 25.227 87.184a61.6 61.6 0 0 0 9.56 33.07l1.44 2.29-6.12 22.37 22.94-6.02 2.21 1.31a61.2 61.2 0 0 0 31.19 8.52 62.17 62.17 0 0 0 .71-123.5z" fill="url(#a)"/>
  <path d="M68.772 55.603c-1.378-3.061-2.828-3.123-4.137-3.176l-3.524-.043a6.76 6.76 0 0 0-4.894 2.3c-1.684 1.842-6.426 6.277-6.426 15.306s6.58 17.76 7.497 18.99 12.692 20.274 31.34 27.627c15.507 6.118 18.668 4.9 22.03 4.594s10.84-4.43 12.37-8.71 1.53-7.95 1.07-8.71-1.684-1.226-3.525-2.146-10.84-5.35-12.524-5.96-2.91-.918-4.137 .918-4.742 5.96-5.813 7.187-2.144 1.378-3.984.46-7.76-2.861-14.784-9.124c-5.465-4.873-9.154-10.891-10.228-12.73s-.114-2.835.808-3.751c.825-.825 1.84-2.148 2.76-3.223a12.39 12.39 0 0 0 1.836-3.064 3.39 3.39 0 0 0-.153-3.223c-.46-.918-4.049-9.99-5.7-13.617z" fill="#fff"/>
</svg>
